<svg width="1440" height="900" viewBox="0 0 1440 900" fill="none" xmlns="http://www.w3.org/2000/svg">
<path opacity="0.2" d="M823.417 -114.963L823.24 -115.947L822.256 -115.77L587.577 -73.6293L586.593 -73.4526L586.77 -72.4683L804.128 1137.98L804.304 1138.96L805.289 1138.79L1039.97 1096.65L1040.28 1096.59L1040.5 1096.37L1621.07 513.149L1621.44 512.779L1621.35 512.266L1576.2 260.866L1575.87 258.98L1574.51 260.336L995.036 840.768L823.417 -114.963ZM907.227 -106.98L905.581 -107.598L905.892 -105.867L1043.68 661.471L1044 663.275L1045.35 662.026L1267.94 454.939L1268.34 454.567L1268.24 454.03L1186.41 -1.6485L1186.31 -2.20814L1185.78 -2.40795L907.227 -106.98ZM946.506 -138.082L943.04 -137.459L946.316 -136.167L1226.27 -25.7694L1305.87 417.539L1306.2 419.343L1307.54 418.095L1474.14 263.097L1474.54 262.725L1474.44 262.188L1388.5 -216.433L1388.32 -217.417L1387.34 -217.241L946.506 -138.082ZM-166.289 1312.98L253.981 754.605L337.858 1221.71L338.035 1222.69L339.019 1222.51L743.531 1149.88L744.515 1149.7L744.338 1148.72L659.641 677.043L659.464 676.058L658.48 676.235L256.193 748.473L591.361 298.585L591.62 298.237L591.543 297.811L526.981 -61.7322L526.554 -64.1084L525.175 -62.1264L523.93 -60.3347L523.909 -60.3052L-557.7 1380.29L-557.961 1380.64L-557.884 1381.07L-557.626 1382.51L-557.45 1383.49L-556.465 1383.31L-166.912 1313.36L-166.525 1313.29L-166.289 1312.98Z" stroke="#FACB63" stroke-width="2"/>
</svg>
