<svg width="21" height="21" viewBox="0 0 21 21" fill="none" xmlns="http://www.w3.org/2000/svg">
<path d="M19.2464 15.0431L18.1939 12.9386C18.0925 12.7357 17.9366 12.565 17.7437 12.4458C17.5508 12.3265 17.3284 12.2633 17.1016 12.2633L16.8159 12.2633C16.6046 11.2724 16.229 10.3238 15.7048 9.45674C15.0765 8.26622 14.4263 7.03662 14.4263 5.55427C14.4263 4.58274 14.0404 3.651 13.3534 2.96403C12.6664 2.27705 11.7347 1.89111 10.7632 1.89111C9.79164 1.89111 8.8599 2.27705 8.17293 2.96403C7.48595 3.651 7.10002 4.58274 7.10002 5.55427C7.01329 6.90503 6.58267 8.21119 5.84905 9.34868C5.30058 10.2462 4.91414 11.2332 4.70737 12.2645L4.42469 12.2645C4.19789 12.2646 3.97557 12.3277 3.78265 12.447C3.58973 12.5663 3.43385 12.7369 3.33246 12.9398L2.27992 15.0443C2.22918 15.1461 2.20789 15.2601 2.21846 15.3733C2.22903 15.4866 2.27104 15.5947 2.33975 15.6853L4.79956 18.937C5.07929 19.2727 5.46981 19.4973 5.90063 19.5703C6.33144 19.6433 6.77416 19.5598 7.14886 19.335L8.29298 18.6488C9.09515 18.8828 9.92763 18.9964 10.7632 18.9858C11.5994 18.9966 12.4325 18.8828 13.2352 18.6482L14.3775 19.3338C14.6608 19.5051 14.9854 19.5958 15.3165 19.5963C15.5903 19.595 15.8604 19.533 16.1074 19.4149C16.3544 19.2968 16.5722 19.1254 16.7451 18.9132L19.1872 15.6847C19.2559 15.5939 19.2978 15.4857 19.3083 15.3723C19.3187 15.2589 19.2973 15.1449 19.2464 15.0431ZM14.6254 10.027C15.0419 10.7262 15.3623 11.4785 15.5778 12.2633L14.2664 12.2633C14.1129 11.7091 13.9128 11.1689 13.668 10.6485C13.4386 10.1704 13.2588 9.66996 13.1314 9.15514C13.3638 8.88572 13.569 8.59388 13.7438 8.28392L13.7676 8.23997C14.0218 8.85033 14.3081 9.44683 14.6254 10.027V10.027ZM8.32107 13.4911C8.36816 12.6693 8.59159 11.8672 8.97616 11.1394C9.13245 10.784 9.29119 10.422 9.4194 10.041C9.81959 10.3004 10.2863 10.4384 10.7632 10.4384C11.2401 10.4384 11.7067 10.3004 12.1069 10.041C12.2351 10.422 12.3939 10.784 12.5502 11.14C12.9347 11.8676 13.1581 12.6695 13.2053 13.4911C13.2053 14.2775 12.9519 15.3227 10.7632 15.3227C8.57443 15.3227 8.32107 14.2775 8.32107 13.4911ZM12.2956 8.25584C12.1222 8.51496 11.8961 8.73456 11.6321 8.90026C11.368 9.06597 11.0719 9.17404 10.7632 9.21742C10.4544 9.17397 10.1583 9.0658 9.89419 8.89999C9.63012 8.73418 9.40403 8.51446 9.23075 8.25523C10.2232 7.90982 11.3032 7.90982 12.2956 8.25523L12.2956 8.25584ZM8.32107 5.55427C8.32107 4.90658 8.57836 4.28542 9.03634 3.82744C9.49432 3.36946 10.1155 3.11216 10.7632 3.11216C11.4109 3.11216 12.032 3.36946 12.49 3.82744C12.948 4.28542 13.2053 4.90658 13.2053 5.55427C13.2079 6.19864 13.3039 6.83924 13.4904 7.45605C13.2054 7.29823 12.9054 7.16937 12.5947 7.07142L12.5947 5.55427L11.3737 5.55427L11.3737 6.80828C10.9679 6.76416 10.5585 6.76416 10.1526 6.80828L10.1526 5.55427L8.93159 5.55427L8.93159 7.07142C8.61835 7.17001 8.316 7.30032 8.02924 7.46033C8.22018 6.84289 8.31852 6.20055 8.32107 5.55427V5.55427ZM6.92602 9.92563C7.23075 9.37456 7.50668 8.80804 7.75267 8.22837L7.78258 8.28331C7.95733 8.59348 8.16246 8.88553 8.39494 9.15514C8.26753 9.66975 8.0877 10.1699 7.85829 10.6479C7.61349 11.1687 7.41333 11.7093 7.25997 12.2639L5.94246 12.2639C6.15248 11.4401 6.48375 10.6521 6.92541 9.92563L6.92602 9.92563ZM7.76244 17.5432L6.52063 18.288C6.40046 18.3622 6.25802 18.3919 6.1182 18.3718C5.97837 18.3517 5.85005 18.2832 5.75564 18.1781L3.54187 15.2512L4.42469 13.4856L6.6873 13.4856L8.0097 16.7788C8.06741 16.9146 8.07417 17.0667 8.02875 17.2071C7.98332 17.3475 7.88876 17.4669 7.76244 17.5432V17.5432ZM9.17641 17.6146C9.32388 17.1956 9.31171 16.7369 9.14222 16.3264C9.66873 16.479 10.2151 16.5523 10.7632 16.5437C11.3115 16.5524 11.858 16.4791 12.3847 16.3264C12.2174 16.7375 12.2057 17.1955 12.3518 17.6146C11.303 17.8147 10.2258 17.8147 9.17702 17.6146L9.17641 17.6146ZM15.7884 18.1543C15.6954 18.2665 15.5653 18.3416 15.4217 18.3659C15.278 18.3902 15.1304 18.3621 15.0057 18.2868L13.7639 17.5419C13.6361 17.4638 13.5411 17.3419 13.4966 17.1989C13.4521 17.0559 13.4612 16.9015 13.5221 16.7647L14.839 13.4844L17.101 13.4844L17.9839 15.25L15.7884 18.1543Z" fill="black"/>
</svg>
