<svg width="20" height="20" viewBox="0 0 20 20" fill="none" xmlns="http://www.w3.org/2000/svg">
<path d="M16.6033 3.68811H3.57875C2.68331 3.68811 1.95882 4.42074 1.95882 5.31618L1.95068 15.0846C1.95068 15.98 2.68331 16.7127 3.57875 16.7127H16.6033C17.4987 16.7127 18.2314 15.98 18.2314 15.0846V5.31618C18.2314 4.42074 17.4987 3.68811 16.6033 3.68811ZM3.57875 7.75828H12.1261V10.6074H3.57875V7.75828ZM3.57875 12.2355H12.1261V15.0846H4.39279C3.94507 15.0846 3.57875 14.7183 3.57875 14.2706V12.2355ZM15.7893 15.0846H13.7542V7.75828H16.6033V14.2706C16.6033 14.7183 16.237 15.0846 15.7893 15.0846Z" fill="black"/>
</svg>
