<svg width="21" height="21" viewBox="0 0 21 21" fill="none" xmlns="http://www.w3.org/2000/svg">
<path d="M13.2523 10.5315L12.0312 12.1596M6.33301 8.90344L6.33301 10.5315C6.33301 11.0745 6.65862 12.1596 7.96108 12.1596C9.26353 12.1596 9.58914 11.0745 9.58914 10.5315L9.58914 8.90344L6.33301 8.90344ZM12.0312 8.90344L13.2523 10.5315L12.0312 8.90344ZM14.4733 12.1596L13.2523 10.5315L14.4733 12.1596ZM13.2523 10.5315L14.4733 8.90344L13.2523 10.5315Z" stroke="black" stroke-width="1.62807" stroke-linecap="round" stroke-linejoin="round"/>
<path d="M10.4033 18.6719C14.8991 18.6719 18.5436 15.0274 18.5436 10.5316C18.5436 6.03579 14.8991 2.39124 10.4033 2.39124C5.90749 2.39124 2.26294 6.03579 2.26294 10.5316C2.26294 15.0274 5.90749 18.6719 10.4033 18.6719Z" stroke="black" stroke-width="1.62807" stroke-linecap="round" stroke-linejoin="round"/>
</svg>
